REM DIRINDEX 1\2,1\3,1\4,1\5\6,1\5\7,1\8
REM DIRNAME cjc115,folder01,folder02,folder03,folder04,folder05,folder06,folder07
TITLE ""
FILE "143 【143】Unit8 (1621 shipment_1632 complacent).mp3" MP3
  TRACK 01 AUDIO
    TITLE "0:"
    INDEX 01 00:00:00
  TRACK 02 AUDIO
    TITLE "2:cjc115_5576"
    INDEX 01 00:00:07
  TRACK 03 AUDIO
    TITLE "0:"
    INDEX 01 00:01:15
  TRACK 04 AUDIO
    TITLE "3:cjc115_5577"
    INDEX 01 00:01:26
  TRACK 05 AUDIO
    TITLE "0:"
    INDEX 01 00:03:27
  TRACK 06 AUDIO
    TITLE "4:cjc115_5578"
    INDEX 01 00:03:41
  TRACK 07 AUDIO
    TITLE "0:"
    INDEX 01 00:07:27
  TRACK 08 AUDIO
    TITLE "2:cjc115_5579"
    INDEX 01 00:08:46
  TRACK 09 AUDIO
    TITLE "0:"
    INDEX 01 00:09:63
  TRACK 10 AUDIO
    TITLE "3:cjc115_5580"
    INDEX 01 00:10:02
  TRACK 11 AUDIO
    TITLE "0:"
    INDEX 01 00:12:60
  TRACK 12 AUDIO
    TITLE "4:cjc115_5581"
    INDEX 01 00:12:69
  TRACK 13 AUDIO
    TITLE "0:"
    INDEX 01 00:16:69
  TRACK 14 AUDIO
    TITLE "2:cjc115_5582"
    INDEX 01 00:18:07
  TRACK 15 AUDIO
    TITLE "0:"
    INDEX 01 00:19:16
  TRACK 16 AUDIO
    TITLE "3:cjc115_5583"
    INDEX 01 00:19:28
  TRACK 17 AUDIO
    TITLE "0:"
    INDEX 01 00:22:66
  TRACK 18 AUDIO
    TITLE "4:cjc115_5584"
    INDEX 01 00:23:03
  TRACK 19 AUDIO
    TITLE "0:"
    INDEX 01 00:27:24
  TRACK 20 AUDIO
    TITLE "2:cjc115_5585"
    INDEX 01 00:28:39
  TRACK 21 AUDIO
    TITLE "0:"
    INDEX 01 00:29:46
  TRACK 22 AUDIO
    TITLE "3:cjc115_5586"
    INDEX 01 00:29:58
  TRACK 23 AUDIO
    TITLE "0:"
    INDEX 01 00:31:18
  TRACK 24 AUDIO
    TITLE "4:cjc115_5587"
    INDEX 01 00:31:27
  TRACK 25 AUDIO
    TITLE "0:"
    INDEX 01 00:34:36
  TRACK 26 AUDIO
    TITLE "2:cjc115_5588"
    INDEX 01 00:35:47
  TRACK 27 AUDIO
    TITLE "0:"
    INDEX 01 00:36:66
  TRACK 28 AUDIO
    TITLE "3:cjc115_5589"
    INDEX 01 00:37:08
  TRACK 29 AUDIO
    TITLE "0:"
    INDEX 01 00:40:13
  TRACK 30 AUDIO
    TITLE "4:cjc115_5590"
    INDEX 01 00:40:26
  TRACK 31 AUDIO
    TITLE "0:"
    INDEX 01 00:43:13
  TRACK 32 AUDIO
    TITLE "2:cjc115_5591"
    INDEX 01 00:44:20
  TRACK 33 AUDIO
    TITLE "0:"
    INDEX 01 00:45:39
  TRACK 34 AUDIO
    TITLE "3:cjc115_5592"
    INDEX 01 00:45:53
  TRACK 35 AUDIO
    TITLE "0:"
    INDEX 01 00:47:60
  TRACK 36 AUDIO
    TITLE "4:cjc115_5593"
    INDEX 01 00:47:64
  TRACK 37 AUDIO
    TITLE "0:"
    INDEX 01 00:51:54
  TRACK 38 AUDIO
    TITLE "2:cjc115_5594"
    INDEX 01 00:52:65
  TRACK 39 AUDIO
    TITLE "0:"
    INDEX 01 00:54:07
  TRACK 40 AUDIO
    TITLE "3:cjc115_5595"
    INDEX 01 00:54:21
  TRACK 41 AUDIO
    TITLE "0:"
    INDEX 01 00:55:61
  TRACK 42 AUDIO
    TITLE "4:cjc115_5596"
    INDEX 01 00:56:00
  TRACK 43 AUDIO
    TITLE "0:"
    INDEX 01 00:59:24
  TRACK 44 AUDIO
    TITLE "2:cjc115_5597"
    INDEX 01 01:00:43
  TRACK 45 AUDIO
    TITLE "0:"
    INDEX 01 01:02:03
  TRACK 46 AUDIO
    TITLE "3:cjc115_5598"
    INDEX 01 01:02:14
  TRACK 47 AUDIO
    TITLE "0:"
    INDEX 01 01:03:51
  TRACK 48 AUDIO
    TITLE "4:cjc115_5599"
    INDEX 01 01:03:59
  TRACK 49 AUDIO
    TITLE "0:"
    INDEX 01 01:06:16
  TRACK 50 AUDIO
    TITLE "2:cjc115_5600"
    INDEX 01 01:07:27
  TRACK 51 AUDIO
    TITLE "0:"
    INDEX 01 01:08:36
  TRACK 52 AUDIO
    TITLE "3:cjc115_5601"
    INDEX 01 01:08:48
  TRACK 53 AUDIO
    TITLE "0:"
    INDEX 01 01:10:69
  TRACK 54 AUDIO
    TITLE "4:cjc115_5602"
    INDEX 01 01:11:07
  TRACK 55 AUDIO
    TITLE "0:"
    INDEX 01 01:14:17
  TRACK 56 AUDIO
    TITLE "2:cjc115_5603"
    INDEX 01 01:15:29
  TRACK 57 AUDIO
    TITLE "0:"
    INDEX 01 01:16:54
  TRACK 58 AUDIO
    TITLE "3:cjc115_5604"
    INDEX 01 01:16:65
  TRACK 59 AUDIO
    TITLE "0:"
    INDEX 01 01:19:72
  TRACK 60 AUDIO
    TITLE "4:cjc115_5605"
    INDEX 01 01:20:10
  TRACK 61 AUDIO
    TITLE "0:"
    INDEX 01 01:23:52
  TRACK 62 AUDIO
    TITLE "2:cjc115_5606"
    INDEX 01 01:24:61
  TRACK 63 AUDIO
    TITLE "0:"
    INDEX 01 01:26:13
  TRACK 64 AUDIO
    TITLE "3:cjc115_5607"
    INDEX 01 01:26:23
  TRACK 65 AUDIO
    TITLE "0:"
    INDEX 01 01:27:18
  TRACK 66 AUDIO
    TITLE "4:cjc115_5608"
    INDEX 01 01:27:32
  TRACK 67 AUDIO
    TITLE "0:"
    INDEX 01 01:32:19
  TRACK 68 AUDIO
    TITLE "2:cjc115_5609"
    INDEX 01 01:33:33
  TRACK 69 AUDIO
    TITLE "0:"
    INDEX 01 01:34:54
  TRACK 70 AUDIO
    TITLE "3:cjc115_5610"
    INDEX 01 01:34:63
  TRACK 71 AUDIO
    TITLE "0:"
    INDEX 01 01:37:58
  TRACK 72 AUDIO
    TITLE "4:cjc115_5611"
    INDEX 01 01:37:68
  TRACK 73 AUDIO
    TITLE "0:"
    INDEX 01 01:42:33
